<mxfile host="app.diagrams.net" agent="Mozilla/5.0 (Windows NT 10.0; Win64; x64; rv:141.0) Gecko/20100101 Firefox/141.0" version="28.1.0">
  <diagram name="Page-1" id="zghZ9yAq2UGB5DBLyasA">
    <mxGraphModel dx="368" dy="701" grid="1" gridSize="10" guides="1" tooltips="1" connect="1" arrows="1" fold="1" page="1" pageScale="1" pageWidth="850" pageHeight="1100" math="0" shadow="0">
      <root>
        <mxCell id="0" />
        <mxCell id="1" parent="0" />
        <mxCell id="4kp00q03GxF65c3WFeZQ-2" value="A" style="rounded=0;whiteSpace=wrap;html=1;" vertex="1" parent="1">
          <mxGeometry x="320" y="80" width="40" height="40" as="geometry" />
        </mxCell>
        <mxCell id="4kp00q03GxF65c3WFeZQ-3" value="B" style="rounded=0;whiteSpace=wrap;html=1;" vertex="1" parent="1">
          <mxGeometry x="160" y="80" width="40" height="40" as="geometry" />
        </mxCell>
        <mxCell id="4kp00q03GxF65c3WFeZQ-4" value="&lt;div&gt;C&lt;/div&gt;" style="rounded=0;whiteSpace=wrap;html=1;" vertex="1" parent="1">
          <mxGeometry x="560" y="80" width="40" height="40" as="geometry" />
        </mxCell>
        <mxCell id="4kp00q03GxF65c3WFeZQ-5" value="D" style="rounded=0;whiteSpace=wrap;html=1;" vertex="1" parent="1">
          <mxGeometry x="320" y="140" width="40" height="40" as="geometry" />
        </mxCell>
        <mxCell id="4kp00q03GxF65c3WFeZQ-6" value="E" style="rounded=0;whiteSpace=wrap;html=1;" vertex="1" parent="1">
          <mxGeometry x="320" y="200" width="40" height="40" as="geometry" />
        </mxCell>
        <mxCell id="4kp00q03GxF65c3WFeZQ-7" value="F" style="rounded=0;whiteSpace=wrap;html=1;" vertex="1" parent="1">
          <mxGeometry x="400" y="80" width="40" height="40" as="geometry" />
        </mxCell>
        <mxCell id="4kp00q03GxF65c3WFeZQ-8" value="G" style="rounded=0;whiteSpace=wrap;html=1;" vertex="1" parent="1">
          <mxGeometry x="240" y="80" width="40" height="40" as="geometry" />
        </mxCell>
        <mxCell id="4kp00q03GxF65c3WFeZQ-9" value="H" style="rounded=0;whiteSpace=wrap;html=1;" vertex="1" parent="1">
          <mxGeometry x="240" y="140" width="40" height="40" as="geometry" />
        </mxCell>
        <mxCell id="4kp00q03GxF65c3WFeZQ-10" value="I" style="rounded=0;whiteSpace=wrap;html=1;" vertex="1" parent="1">
          <mxGeometry x="720" y="80" width="40" height="40" as="geometry" />
        </mxCell>
        <mxCell id="4kp00q03GxF65c3WFeZQ-11" value="J" style="rounded=0;whiteSpace=wrap;html=1;" vertex="1" parent="1">
          <mxGeometry x="560" y="140" width="40" height="40" as="geometry" />
        </mxCell>
        <mxCell id="4kp00q03GxF65c3WFeZQ-12" value="K" style="rounded=0;whiteSpace=wrap;html=1;" vertex="1" parent="1">
          <mxGeometry x="400" y="140" width="40" height="40" as="geometry" />
        </mxCell>
        <mxCell id="4kp00q03GxF65c3WFeZQ-13" value="L" style="rounded=0;whiteSpace=wrap;html=1;" vertex="1" parent="1">
          <mxGeometry x="640" y="80" width="40" height="40" as="geometry" />
        </mxCell>
        <mxCell id="4kp00q03GxF65c3WFeZQ-14" value="M" style="rounded=0;whiteSpace=wrap;html=1;" vertex="1" parent="1">
          <mxGeometry x="160" y="140" width="40" height="40" as="geometry" />
        </mxCell>
        <mxCell id="4kp00q03GxF65c3WFeZQ-15" value="N" style="rounded=0;whiteSpace=wrap;html=1;" vertex="1" parent="1">
          <mxGeometry x="240" y="200" width="40" height="40" as="geometry" />
        </mxCell>
        <mxCell id="4kp00q03GxF65c3WFeZQ-16" value="O" style="rounded=0;whiteSpace=wrap;html=1;" vertex="1" parent="1">
          <mxGeometry x="160" y="200" width="40" height="40" as="geometry" />
        </mxCell>
        <mxCell id="4kp00q03GxF65c3WFeZQ-17" value="P" style="rounded=0;whiteSpace=wrap;html=1;" vertex="1" parent="1">
          <mxGeometry x="400" y="200" width="40" height="40" as="geometry" />
        </mxCell>
        <mxCell id="4kp00q03GxF65c3WFeZQ-18" value="Q" style="rounded=0;whiteSpace=wrap;html=1;" vertex="1" parent="1">
          <mxGeometry x="80" y="80" width="40" height="40" as="geometry" />
        </mxCell>
        <mxCell id="4kp00q03GxF65c3WFeZQ-19" value="R" style="rounded=0;whiteSpace=wrap;html=1;" vertex="1" parent="1">
          <mxGeometry x="240" y="260" width="40" height="40" as="geometry" />
        </mxCell>
        <mxCell id="4kp00q03GxF65c3WFeZQ-20" value="S" style="rounded=0;whiteSpace=wrap;html=1;" vertex="1" parent="1">
          <mxGeometry x="560" y="200" width="40" height="40" as="geometry" />
        </mxCell>
        <mxCell id="4kp00q03GxF65c3WFeZQ-21" value="T" style="rounded=0;whiteSpace=wrap;html=1;" vertex="1" parent="1">
          <mxGeometry x="480" y="80" width="40" height="40" as="geometry" />
        </mxCell>
        <mxCell id="4kp00q03GxF65c3WFeZQ-22" value="U" style="rounded=0;whiteSpace=wrap;html=1;" vertex="1" parent="1">
          <mxGeometry x="480" y="140" width="40" height="40" as="geometry" />
        </mxCell>
        <mxCell id="4kp00q03GxF65c3WFeZQ-23" value="V" style="rounded=0;whiteSpace=wrap;html=1;" vertex="1" parent="1">
          <mxGeometry x="640" y="140" width="40" height="40" as="geometry" />
        </mxCell>
        <mxCell id="4kp00q03GxF65c3WFeZQ-24" value="W" style="rounded=0;whiteSpace=wrap;html=1;" vertex="1" parent="1">
          <mxGeometry x="160" y="260" width="40" height="40" as="geometry" />
        </mxCell>
        <mxCell id="4kp00q03GxF65c3WFeZQ-25" value="X" style="rounded=0;whiteSpace=wrap;html=1;" vertex="1" parent="1">
          <mxGeometry x="640" y="200" width="40" height="40" as="geometry" />
        </mxCell>
        <mxCell id="4kp00q03GxF65c3WFeZQ-26" value="Y" style="rounded=0;whiteSpace=wrap;html=1;" vertex="1" parent="1">
          <mxGeometry x="480" y="200" width="40" height="40" as="geometry" />
        </mxCell>
        <mxCell id="4kp00q03GxF65c3WFeZQ-27" value="Z" style="rounded=0;whiteSpace=wrap;html=1;" vertex="1" parent="1">
          <mxGeometry x="560" y="260" width="40" height="40" as="geometry" />
        </mxCell>
        <mxCell id="4kp00q03GxF65c3WFeZQ-30" value="&quot;fat&quot;" style="text;html=1;align=center;verticalAlign=middle;whiteSpace=wrap;rounded=0;" vertex="1" parent="1">
          <mxGeometry x="30" y="40" width="60" height="30" as="geometry" />
        </mxCell>
        <mxCell id="4kp00q03GxF65c3WFeZQ-31" value="&quot;thin&quot;" style="text;html=1;align=center;verticalAlign=middle;whiteSpace=wrap;rounded=0;" vertex="1" parent="1">
          <mxGeometry x="750" y="40" width="60" height="30" as="geometry" />
        </mxCell>
        <mxCell id="4kp00q03GxF65c3WFeZQ-32" value="A" style="rounded=0;whiteSpace=wrap;html=1;" vertex="1" parent="1">
          <mxGeometry x="200" y="800" width="40" height="40" as="geometry" />
        </mxCell>
        <mxCell id="4kp00q03GxF65c3WFeZQ-33" value="B" style="rounded=0;whiteSpace=wrap;html=1;" vertex="1" parent="1">
          <mxGeometry x="120" y="680" width="40" height="40" as="geometry" />
        </mxCell>
        <mxCell id="4kp00q03GxF65c3WFeZQ-34" value="&lt;div&gt;C&lt;/div&gt;" style="rounded=0;whiteSpace=wrap;html=1;" vertex="1" parent="1">
          <mxGeometry x="360" y="740" width="40" height="40" as="geometry" />
        </mxCell>
        <mxCell id="4kp00q03GxF65c3WFeZQ-35" value="D" style="rounded=0;whiteSpace=wrap;html=1;" vertex="1" parent="1">
          <mxGeometry x="280" y="740" width="40" height="40" as="geometry" />
        </mxCell>
        <mxCell id="4kp00q03GxF65c3WFeZQ-36" value="E" style="rounded=0;whiteSpace=wrap;html=1;" vertex="1" parent="1">
          <mxGeometry x="200" y="680" width="40" height="40" as="geometry" />
        </mxCell>
        <mxCell id="4kp00q03GxF65c3WFeZQ-37" value="F" style="rounded=0;whiteSpace=wrap;html=1;" vertex="1" parent="1">
          <mxGeometry x="280" y="680" width="40" height="40" as="geometry" />
        </mxCell>
        <mxCell id="4kp00q03GxF65c3WFeZQ-38" value="G" style="rounded=0;whiteSpace=wrap;html=1;" vertex="1" parent="1">
          <mxGeometry x="280" y="620" width="40" height="40" as="geometry" />
        </mxCell>
        <mxCell id="4kp00q03GxF65c3WFeZQ-39" value="H" style="rounded=0;whiteSpace=wrap;html=1;" vertex="1" parent="1">
          <mxGeometry x="280" y="560" width="40" height="40" as="geometry" />
        </mxCell>
        <mxCell id="4kp00q03GxF65c3WFeZQ-40" value="I" style="rounded=0;whiteSpace=wrap;html=1;" vertex="1" parent="1">
          <mxGeometry x="440" y="740" width="40" height="40" as="geometry" />
        </mxCell>
        <mxCell id="4kp00q03GxF65c3WFeZQ-41" value="J" style="rounded=0;whiteSpace=wrap;html=1;" vertex="1" parent="1">
          <mxGeometry x="280" y="860" width="40" height="40" as="geometry" />
        </mxCell>
        <mxCell id="4kp00q03GxF65c3WFeZQ-42" value="K" style="rounded=0;whiteSpace=wrap;html=1;" vertex="1" parent="1">
          <mxGeometry x="480" y="440" width="40" height="40" as="geometry" />
        </mxCell>
        <mxCell id="4kp00q03GxF65c3WFeZQ-43" value="L" style="rounded=0;whiteSpace=wrap;html=1;" vertex="1" parent="1">
          <mxGeometry x="360" y="680" width="40" height="40" as="geometry" />
        </mxCell>
        <mxCell id="4kp00q03GxF65c3WFeZQ-44" value="M" style="rounded=0;whiteSpace=wrap;html=1;" vertex="1" parent="1">
          <mxGeometry x="640" y="760" width="40" height="40" as="geometry" />
        </mxCell>
        <mxCell id="4kp00q03GxF65c3WFeZQ-45" value="N" style="rounded=0;whiteSpace=wrap;html=1;" vertex="1" parent="1">
          <mxGeometry x="720" y="760" width="40" height="40" as="geometry" />
        </mxCell>
        <mxCell id="4kp00q03GxF65c3WFeZQ-46" value="O" style="rounded=0;whiteSpace=wrap;html=1;" vertex="1" parent="1">
          <mxGeometry x="280" y="500" width="40" height="40" as="geometry" />
        </mxCell>
        <mxCell id="4kp00q03GxF65c3WFeZQ-47" value="P" style="rounded=0;whiteSpace=wrap;html=1;" vertex="1" parent="1">
          <mxGeometry x="200" y="620" width="40" height="40" as="geometry" />
        </mxCell>
        <mxCell id="4kp00q03GxF65c3WFeZQ-48" value="Q" style="rounded=0;whiteSpace=wrap;html=1;" vertex="1" parent="1">
          <mxGeometry x="200" y="560" width="40" height="40" as="geometry" />
        </mxCell>
        <mxCell id="4kp00q03GxF65c3WFeZQ-49" value="R" style="rounded=0;whiteSpace=wrap;html=1;" vertex="1" parent="1">
          <mxGeometry x="200" y="740" width="40" height="40" as="geometry" />
        </mxCell>
        <mxCell id="4kp00q03GxF65c3WFeZQ-50" value="S" style="rounded=0;whiteSpace=wrap;html=1;" vertex="1" parent="1">
          <mxGeometry x="1040" y="560" width="40" height="40" as="geometry" />
        </mxCell>
        <mxCell id="4kp00q03GxF65c3WFeZQ-51" value="T" style="rounded=0;whiteSpace=wrap;html=1;" vertex="1" parent="1">
          <mxGeometry x="320" y="800" width="40" height="40" as="geometry" />
        </mxCell>
        <mxCell id="4kp00q03GxF65c3WFeZQ-52" value="U" style="rounded=0;whiteSpace=wrap;html=1;" vertex="1" parent="1">
          <mxGeometry x="800" y="540" width="40" height="40" as="geometry" />
        </mxCell>
        <mxCell id="4kp00q03GxF65c3WFeZQ-53" value="V" style="rounded=0;whiteSpace=wrap;html=1;" vertex="1" parent="1">
          <mxGeometry x="800" y="760" width="40" height="40" as="geometry" />
        </mxCell>
        <mxCell id="4kp00q03GxF65c3WFeZQ-54" value="W" style="rounded=0;whiteSpace=wrap;html=1;" vertex="1" parent="1">
          <mxGeometry x="730" y="570" width="40" height="40" as="geometry" />
        </mxCell>
        <mxCell id="4kp00q03GxF65c3WFeZQ-55" value="X" style="rounded=0;whiteSpace=wrap;html=1;" vertex="1" parent="1">
          <mxGeometry x="640" y="440" width="40" height="40" as="geometry" />
        </mxCell>
        <mxCell id="4kp00q03GxF65c3WFeZQ-56" value="Y" style="rounded=0;whiteSpace=wrap;html=1;" vertex="1" parent="1">
          <mxGeometry x="560" y="440" width="40" height="40" as="geometry" />
        </mxCell>
        <mxCell id="4kp00q03GxF65c3WFeZQ-57" value="Z" style="rounded=0;whiteSpace=wrap;html=1;" vertex="1" parent="1">
          <mxGeometry x="1040" y="610" width="40" height="40" as="geometry" />
        </mxCell>
      </root>
    </mxGraphModel>
  </diagram>
</mxfile>
